<svg width="200" height="224" viewBox="0 0 200 224" fill="none" xmlns="http://www.w3.org/2000/svg">
<rect y="12" width="200" height="200" rx="20" fill="white"/>
<path d="M52.1 176V166.375C55.3667 166.258 57.875 165.675 59.625 164.625C61.375 163.575 62.6 161.825 63.3 159.375C64 156.808 64.35 153.25 64.35 148.7V79.575C64.35 76.425 64.4083 73.5083 64.525 70.825C64.7583 68.1417 64.9333 66.0417 65.05 64.525C63.0667 64.6417 60.7917 64.7583 58.225 64.875C55.6583 64.875 53.6167 64.9333 52.1 65.05V53.5C59.5667 53.3833 67.0917 53.325 74.675 53.325C82.2583 53.325 89.9 53.2667 97.6 53.15C111.367 53.0333 122.275 55.5417 130.325 60.675C138.375 65.8083 142.167 73.6833 141.7 84.3C141.583 87.8 140.533 91.2417 138.55 94.625C136.567 98.0083 133.65 101.042 129.8 103.725C125.95 106.408 121.108 108.45 115.275 109.85V110.025C127.292 111.308 136.217 114.925 142.05 120.875C147.883 126.708 150.8 133.533 150.8 141.35C150.8 148.817 148.992 155.117 145.375 160.25C141.758 165.383 136.742 169.292 130.325 171.975C124.025 174.658 116.85 176 108.8 176H52.1ZM85.7 165.325C87.6833 165.442 89.725 165.5 91.825 165.5C94.0417 165.5 96.1417 165.5 98.125 165.5C100.108 165.383 101.8 165.325 103.2 165.325C110.9 165.092 116.733 162.875 120.7 158.675C124.783 154.358 126.825 148.583 126.825 141.35C126.825 135.4 125.6 130.733 123.15 127.35C120.817 123.967 117.725 121.575 113.875 120.175C110.142 118.775 106.117 118.075 101.8 118.075C98.65 118.075 95.9083 118.075 93.575 118.075C91.2417 118.075 88.85 118.192 86.4 118.425V150.625C86.4 153.775 86.3417 156.633 86.225 159.2C86.1083 161.767 85.9333 163.808 85.7 165.325ZM86.4 107.75L96.725 107.575C102.208 107.458 106.525 106.292 109.675 104.075C112.825 101.742 115.1 98.7667 116.5 95.15C117.9 91.4167 118.6 87.3917 118.6 83.075C118.483 77.9417 117.317 73.975 115.1 71.175C113 68.2583 110.375 66.2167 107.225 65.05C104.075 63.8833 100.808 63.3583 97.425 63.475C94.975 63.475 92.9333 63.825 91.3 64.525C89.6667 65.225 88.4417 66.6833 87.625 68.9C86.8083 71.1167 86.4 74.4417 86.4 78.875V107.75Z" fill="#928656"/>
</svg>
