<svg width="399" height="113" viewBox="0 0 399 113" fill="none" xmlns="http://www.w3.org/2000/svg">
<path d="M0.572632 110V101.99C3.29101 101.893 5.37834 101.408 6.83462 100.534C8.29089 99.6604 9.31028 98.2042 9.89279 96.1654C10.4753 94.0295 10.7666 91.0684 10.7666 87.2821V29.7592C10.7666 27.1379 10.8151 24.7108 10.9122 22.4779C11.1064 20.2449 11.252 18.4974 11.3491 17.2353C9.69862 17.3323 7.80547 17.4294 5.6696 17.5265C3.53373 17.5265 1.83474 17.5751 0.572632 17.6721V8.06072C6.78607 7.96364 13.0481 7.91509 19.3586 7.91509C25.6691 7.91509 32.0282 7.86655 38.4358 7.76947C49.8918 7.67238 58.9693 9.75971 65.6681 14.0315C72.367 18.3032 75.5223 24.8564 75.1339 33.6912C75.0368 36.6037 74.1631 39.4677 72.5126 42.2832C70.8622 45.0987 68.4351 47.6229 65.2313 49.8558C62.0275 52.0888 57.9984 53.7878 53.1442 54.9528V55.0984C63.1439 56.1664 70.5709 59.176 75.4252 64.1273C80.2794 68.9816 82.7066 74.661 82.7066 81.1657C82.7066 87.3792 81.2017 92.6218 78.1921 96.8935C75.1825 101.165 71.0078 104.418 65.6681 106.651C60.4256 108.884 54.4548 110 47.756 110H0.572632ZM28.5331 101.117C30.1836 101.214 31.8826 101.262 33.6301 101.262C35.4747 101.262 37.2222 101.262 38.8727 101.262C40.5231 101.165 41.9309 101.117 43.0959 101.117C49.5035 100.923 54.3577 99.0779 57.6586 95.5829C61.0566 91.9907 62.7556 87.185 62.7556 81.1657C62.7556 76.2144 61.7362 72.331 59.6974 69.5155C57.7557 66.7001 55.183 64.7098 51.9792 63.5448C48.8724 62.3798 45.523 61.7973 41.9309 61.7973C39.3096 61.7973 37.0281 61.7973 35.0864 61.7973C33.1447 61.7973 31.1544 61.8944 29.1156 62.0885V88.884C29.1156 91.5053 29.0671 93.8839 28.97 96.0198C28.8729 98.1556 28.7273 99.8546 28.5331 101.117ZM29.1156 53.2053L37.7077 53.0596C42.2706 52.9625 45.8628 51.9917 48.4841 50.1471C51.1054 48.2054 52.9985 45.7297 54.1636 42.7201C55.3286 39.6134 55.9111 36.2639 55.9111 32.6718C55.814 28.4 54.8432 25.0991 52.9985 22.7691C51.251 20.342 49.0666 18.643 46.4453 17.6721C43.824 16.7013 41.1056 16.2644 38.2902 16.3615C36.2514 16.3615 34.5524 16.6527 33.1932 17.2353C31.834 17.8178 30.8146 19.0313 30.135 20.8759C29.4554 22.7206 29.1156 25.4875 29.1156 29.1767V53.2053ZM135.342 110C135.051 108.544 134.856 107.33 134.759 106.359C134.759 105.291 134.711 104.078 134.614 102.719C131.313 106.02 127.769 108.447 123.983 110C120.294 111.553 116.459 112.33 112.478 112.33C105.877 112.33 100.78 110.534 97.1874 106.942C93.6923 103.35 91.9448 98.9323 91.9448 93.6897C91.9448 89.0296 93.2069 85.0977 95.7311 81.8939C98.2553 78.593 101.556 75.9232 105.634 73.8844C109.711 71.7485 114.226 70.1466 119.177 69.0787C124.128 67.9136 129.031 67.2826 133.886 67.1855V59.176C133.886 56.3605 133.546 53.7878 132.866 51.4577C132.284 49.0306 131.167 47.1374 129.517 45.7783C127.866 44.322 125.439 43.5938 122.235 43.5938C120.099 43.6909 117.915 44.1764 115.682 45.0501C113.546 45.8268 111.847 47.0889 110.585 48.8364C111.362 49.7102 111.847 50.681 112.041 51.749C112.236 52.7198 112.333 53.5936 112.333 54.3703C112.333 56.1178 111.653 57.9624 110.294 59.9041C108.935 61.7487 106.75 62.6225 103.741 62.5254C101.119 62.4283 99.0806 61.506 97.6243 59.7585C96.2651 58.011 95.5855 55.9236 95.5855 53.4965C95.5855 49.8073 96.8961 46.6035 99.5174 43.8851C102.236 41.0696 105.877 38.8852 110.44 37.3319C115.002 35.6814 120.099 34.8562 125.73 34.8562C134.08 34.8562 140.487 37.0406 144.953 41.4094C149.419 45.7783 151.604 52.7684 151.506 62.3798C151.506 65.7778 151.506 68.8845 151.506 71.7C151.506 74.4183 151.458 77.1853 151.361 80.0007C151.361 82.7191 151.361 85.7773 151.361 89.1753C151.361 90.6315 151.312 92.4762 151.215 94.7091C151.118 96.845 150.973 98.9808 150.778 101.117C152.526 100.923 154.273 100.825 156.021 100.825C157.866 100.728 159.37 100.631 160.535 100.534V110H135.342ZM133.74 75.7775C130.827 75.9717 127.963 76.4571 125.148 77.2338C122.332 77.9134 119.808 78.8842 117.575 80.1464C115.342 81.4085 113.546 83.0104 112.187 84.9521C110.925 86.7967 110.342 88.9325 110.44 91.3597C110.537 94.3693 111.507 96.6023 113.352 98.0585C115.197 99.4177 117.333 100.097 119.76 100.097C122.575 100.097 125.099 99.5148 127.332 98.3498C129.662 97.1848 131.798 95.6314 133.74 93.6897C133.74 92.7189 133.74 91.6995 133.74 90.6315C133.74 89.5636 133.74 88.4957 133.74 87.4277C133.74 86.0685 133.74 84.3696 133.74 82.3308C133.74 80.292 133.74 78.1076 133.74 75.7775ZM204.294 112.33C197.789 112.33 191.77 110.874 186.236 107.961C180.8 105.049 176.431 100.825 173.13 95.2916C169.926 89.6607 168.324 82.9133 168.324 75.0494C168.324 69.7097 169.246 64.6613 171.091 59.9041C172.936 55.0499 175.508 50.7781 178.809 47.0889C182.207 43.3026 186.236 40.3415 190.896 38.2056C195.557 35.9727 200.702 34.8562 206.333 34.8562C212.255 34.8562 217.255 35.7785 221.333 37.6231C225.41 39.3706 228.517 41.7492 230.653 44.7589C232.789 47.6714 233.857 50.7781 233.857 54.079C233.857 56.7003 233.08 58.9818 231.527 60.9235C230.07 62.8652 227.934 63.8846 225.119 63.9817C221.818 64.0788 219.488 63.1565 218.129 61.2148C216.867 59.176 216.236 57.2828 216.236 55.5353C216.236 54.5645 216.381 53.5451 216.673 52.4771C216.964 51.3121 217.449 50.2442 218.129 49.2733C217.449 47.5258 216.333 46.2637 214.779 45.487C213.226 44.6132 211.624 44.0307 209.974 43.7395C208.323 43.4482 207.013 43.3511 206.042 43.4482C200.702 43.6424 196.285 46.0695 192.79 50.7296C189.295 55.3897 187.547 62.1856 187.547 71.1174C187.547 76.4571 188.275 81.4085 189.731 85.9715C191.285 90.4374 193.615 94.0781 196.722 96.8935C199.828 99.6119 203.809 101.02 208.663 101.117C212.935 101.214 217.061 100.194 221.041 98.0585C225.022 95.8256 228.274 92.9616 230.798 89.4665L236.623 94.8547C233.42 99.4177 229.973 102.961 226.284 105.486C222.595 108.01 218.857 109.757 215.071 110.728C211.381 111.796 207.789 112.33 204.294 112.33ZM287.369 110C287.078 108.544 286.884 107.33 286.786 106.359C286.786 105.291 286.738 104.078 286.641 102.719C283.34 106.02 279.796 108.447 276.01 110C272.321 111.553 268.486 112.33 264.505 112.33C257.904 112.33 252.807 110.534 249.215 106.942C245.72 103.35 243.972 98.9323 243.972 93.6897C243.972 89.0296 245.234 85.0977 247.758 81.8939C250.283 78.593 253.583 75.9232 257.661 73.8844C261.739 71.7485 266.253 70.1466 271.204 69.0787C276.156 67.9136 281.058 67.2826 285.913 67.1855V59.176C285.913 56.3605 285.573 53.7878 284.893 51.4577C284.311 49.0306 283.194 47.1374 281.544 45.7783C279.893 44.322 277.466 43.5938 274.263 43.5938C272.127 43.6909 269.942 44.1764 267.709 45.0501C265.573 45.8268 263.874 47.0889 262.612 48.8364C263.389 49.7102 263.874 50.681 264.069 51.749C264.263 52.7198 264.36 53.5936 264.36 54.3703C264.36 56.1178 263.68 57.9624 262.321 59.9041C260.962 61.7487 258.777 62.6225 255.768 62.5254C253.147 62.4283 251.108 61.506 249.651 59.7585C248.292 58.011 247.613 55.9236 247.613 53.4965C247.613 49.8073 248.923 46.6035 251.545 43.8851C254.263 41.0696 257.904 38.8852 262.467 37.3319C267.03 35.6814 272.127 34.8562 277.758 34.8562C286.107 34.8562 292.514 37.0406 296.98 41.4094C301.446 45.7783 303.631 52.7684 303.534 62.3798C303.534 65.7778 303.534 68.8845 303.534 71.7C303.534 74.4183 303.485 77.1853 303.388 80.0007C303.388 82.7191 303.388 85.7773 303.388 89.1753C303.388 90.6315 303.339 92.4762 303.242 94.7091C303.145 96.845 303 98.9808 302.806 101.117C304.553 100.923 306.301 100.825 308.048 100.825C309.893 100.728 311.398 100.631 312.563 100.534V110H287.369ZM285.767 75.7775C282.855 75.9717 279.991 76.4571 277.175 77.2338C274.36 77.9134 271.835 78.8842 269.602 80.1464C267.369 81.4085 265.573 83.0104 264.214 84.9521C262.952 86.7967 262.37 88.9325 262.467 91.3597C262.564 94.3693 263.535 96.6023 265.379 98.0585C267.224 99.4177 269.36 100.097 271.787 100.097C274.602 100.097 277.127 99.5148 279.359 98.3498C281.69 97.1848 283.825 95.6314 285.767 93.6897C285.767 92.7189 285.767 91.6995 285.767 90.6315C285.767 89.5636 285.767 88.4957 285.767 87.4277C285.767 86.0685 285.767 84.3696 285.767 82.3308C285.767 80.292 285.767 78.1076 285.767 75.7775ZM319.478 102.282C322.293 102.282 324.283 101.699 325.448 100.534C326.71 99.2721 327.439 97.5246 327.633 95.2916C327.924 93.0587 328.07 90.5345 328.07 87.719V24.8079C328.07 23.1574 328.118 21.3614 328.215 19.4197C328.312 17.3809 328.458 15.2936 328.652 13.1577C327.002 13.2548 325.206 13.3519 323.264 13.4489C321.322 13.546 319.672 13.6431 318.313 13.7402V4.27441C322.778 4.27441 326.419 4.08024 329.235 3.6919C332.147 3.20647 334.38 2.62396 335.934 1.94436C337.584 1.26477 338.749 0.633719 339.429 0.0512046H345.982L346.127 89.1753C346.127 90.7286 346.079 92.6218 345.982 94.8547C345.885 96.9906 345.691 99.0779 345.399 101.117C347.05 100.923 348.749 100.825 350.496 100.825C352.244 100.728 353.7 100.68 354.865 100.68V110H319.478V102.282ZM362.995 102.282C365.811 102.282 367.801 101.699 368.966 100.534C370.228 99.2721 370.956 97.5246 371.15 95.2916C371.442 93.0587 371.587 90.5345 371.587 87.719V24.8079C371.587 23.1574 371.636 21.3614 371.733 19.4197C371.83 17.3809 371.976 15.2936 372.17 13.1577C370.519 13.2548 368.723 13.3519 366.781 13.4489C364.84 13.546 363.189 13.6431 361.83 13.7402V4.27441C366.296 4.27441 369.937 4.08024 372.752 3.6919C375.665 3.20647 377.898 2.62396 379.451 1.94436C381.102 1.26477 382.267 0.633719 382.946 0.0512046H389.499L389.645 89.1753C389.645 90.7286 389.596 92.6218 389.499 94.8547C389.402 96.9906 389.208 99.0779 388.917 101.117C390.567 100.923 392.266 100.825 394.014 100.825C395.761 100.728 397.218 100.68 398.383 100.68V110H362.995V102.282Z" fill="#928656"/>
</svg>
